<svg
              xmlns="http://www.w3.org/2000/svg"
              fill="#022B69"
              width="24"
              height="24"
              viewBox="0 0 24 24"
              svg-inline=""
              role="presentation"
              focusable="false"
              tabindex="-1"
              class="w-3 h-3"
            >
              <path
                d="M24.05 4.33c-.897.396-1.852.66-2.847.787a4.951 4.951 0 002.173-2.758 9.81 9.81 0 01-3.133 1.208 4.928 4.928 0 00-3.608-1.579c-2.736 0-4.937 2.242-4.937 4.99 0 .396.033.776.114 1.138-4.107-.202-7.742-2.19-10.183-5.219a5.06 5.06 0 00-.676 2.522 5.01 5.01 0 002.194 4.146A4.844 4.844 0 01.915 8.95v.055c0 2.424 1.713 4.438 3.959 4.902-.403.111-.84.164-1.296.164-.316 0-.635-.018-.935-.085.64 1.976 2.457 3.428 4.616 3.476a9.864 9.864 0 01-6.125 2.128 9.17 9.17 0 01-1.182-.069 13.812 13.812 0 007.579 2.239c9.09 0 14.06-7.605 14.06-14.197 0-.22-.007-.434-.018-.645a9.908 9.908 0 002.476-2.59z"
              ></path>
            </svg>