<svg
              xmlns="http://www.w3.org/2000/svg"
              width="32"
              height="32"
              viewBox="0 0 32 32"
              svg-inline=""
              role="presentation"
              focusable="false"
              tabindex="-1"
              class="w-3 h-3"
            >
              <path
                d="M16.29 0C7.616 0 .582 6.978.582 15.589c0 2.945.823 5.698 2.253 8.049L0 32l8.699-2.762a15.743 15.743 0 007.592 1.94c8.676 0 15.709-6.982 15.709-15.59C32 6.979 24.967 0 16.29 0zm7.811 21.509c-.369.917-2.04 1.753-2.779 1.789-.738.04-.757.571-4.773-1.172-4.017-1.747-6.433-5.989-6.622-6.263-.19-.271-1.555-2.217-1.483-4.176.075-1.96 1.146-2.884 1.528-3.266.382-.385.82-.454 1.088-.457.316-.006.522-.01.754 0 .235.01.584-.049.888.76.304.81 1.032 2.796 1.123 3.002.092.202.15.437.007.698-.144.262-.219.425-.425.65-.209.226-.44.503-.627.676-.209.19-.427.399-.205.807.218.408.976 1.74 2.125 2.837 1.48 1.41 2.756 1.881 3.151 2.093.396.216.63.19.872-.065.242-.258 1.045-1.123 1.33-1.512.283-.388.548-.313.91-.166.363.147 2.296 1.182 2.69 1.397.396.212.657.323.752.493.095.16.065.957-.304 1.875z"
              ></path>
            </svg>